<svg version="1.1" id="Layer_1" xmlns="http://www.w3.org/2000/svg" xmlns:xlink="http://www.w3.org/1999/xlink" x="0px" y="0px"
	 width="100%" viewBox="0 0 1000 1000" enable-background="new 0 0 1000 1000" xml:space="preserve">
<path fill="#000000" opacity="1.000000" stroke="none" 
	d="
M562.000000,1001.000000 
	C374.666656,1001.000000 187.833328,1001.000000 1.000000,1001.000000 
	C1.000000,667.666687 1.000000,334.333344 1.000000,1.000000 
	C334.333344,1.000000 667.666687,1.000000 1001.000000,1.000000 
	C1001.000000,334.333344 1001.000000,667.666687 1001.000000,1001.000000 
	C854.833313,1001.000000 708.666687,1001.000000 562.000000,1001.000000 
M310.995636,415.003632 
	C310.995636,415.003632 311.019897,415.048218 310.345886,415.237732 
	C307.422119,419.617737 307.735565,421.195923 312.409637,424.466888 
	C325.174988,434.000793 339.766663,435.156311 355.661835,434.106049 
	C360.063904,432.741394 364.677063,431.829468 368.815643,429.899719 
	C374.241333,427.369781 374.515289,421.636993 369.535767,418.062988 
	C366.731934,419.826355 363.809113,421.664551 360.150360,423.683197 
	C358.469147,424.237823 356.787933,424.792450 354.294922,425.100403 
	C346.914948,424.675995 339.534973,424.251587 332.079468,423.988678 
	C332.079468,423.988678 332.127045,423.817139 331.852051,423.223419 
	C331.228943,423.113129 330.605835,423.002838 329.856567,422.624115 
	C329.856567,422.624115 329.561218,422.596710 329.223175,421.967163 
	C325.784454,419.701782 322.345734,417.436401 318.927765,415.076691 
	C318.927765,415.076691 318.831726,415.086792 318.759003,414.418793 
	C317.179291,413.071594 315.761200,410.564331 313.208862,413.473114 
	C313.208862,413.473114 312.805603,413.561981 312.158447,413.561462 
	C311.787170,414.046661 311.415894,414.531860 310.995636,415.003632 
M331.692352,583.089966 
	C332.505463,582.895447 333.318542,582.700989 335.000031,582.835449 
	C337.506897,582.979370 340.013794,583.123352 342.210266,583.960632 
	C349.067291,584.761658 355.911469,585.773193 362.791748,586.194214 
	C364.248535,586.283447 365.837402,584.214783 368.323212,583.124023 
	C370.505432,582.877014 372.687683,582.630005 375.647583,582.877380 
	C388.947998,582.371582 391.310059,580.476868 390.189392,567.233459 
	C390.040649,566.176331 389.891907,565.119202 390.029205,563.265808 
	C387.755005,547.603638 377.827515,536.305237 368.001221,525.000000 
	C368.001221,525.000000 368.140533,524.873962 368.193909,524.168701 
	C366.804138,521.897278 365.293060,519.690308 364.045258,517.343445 
	C358.249512,506.442657 352.355957,495.454193 352.436401,482.703827 
	C352.494019,473.571808 353.399292,464.435791 354.158936,455.320923 
	C354.650909,449.417542 355.561951,443.549103 356.350952,437.130127 
	C349.506378,437.130127 343.225006,437.130127 336.255615,436.854675 
	C335.521179,436.828644 334.786774,436.802582 333.665405,436.294556 
	C333.076782,436.330139 332.488190,436.365753 331.181671,436.078857 
	C329.131134,435.663483 327.080566,435.248138 324.559906,434.221893 
	C317.841949,433.862488 320.858978,438.998718 319.820801,442.633148 
	C319.836243,443.082611 319.851685,443.532074 319.286407,444.368439 
	C319.256836,445.258514 319.227295,446.148560 318.842255,447.731628 
	C318.150116,450.474792 317.458008,453.217957 316.158783,456.301758 
	C315.736267,457.849274 315.313782,459.396759 314.499084,461.291779 
	C314.413818,461.625946 314.328552,461.960083 313.638702,462.560272 
	C313.437775,463.374695 313.236847,464.189148 312.523193,465.471008 
	C306.910126,472.833832 302.260040,481.276886 295.475067,487.325104 
	C282.963440,498.478241 269.364655,508.448273 255.902054,518.486450 
	C245.554443,526.201965 238.631790,535.549072 236.701309,548.678284 
	C235.973480,553.628357 237.372604,555.848511 241.925079,557.849854 
	C244.245499,558.987366 246.565918,560.124878 249.321640,561.715759 
	C250.483429,562.174988 251.645233,562.634155 253.143967,563.674561 
	C253.771606,563.809998 254.399246,563.945435 255.532196,564.505615 
	C257.165436,565.132629 258.798706,565.759644 260.776611,567.084045 
	C266.210510,568.649902 271.644440,570.215759 277.711029,572.174622 
	C278.442535,572.264160 279.174042,572.353699 280.275269,573.081238 
	C283.748596,574.170654 287.221924,575.260132 290.679901,577.053955 
	C291.537506,577.536987 292.342194,578.264709 293.261292,578.463684 
	C299.772797,579.872803 306.259125,581.555481 312.849731,582.395691 
	C318.780273,583.151672 324.833435,582.945679 331.692352,583.089966 
M320.648743,412.050598 
	C321.359314,412.499268 322.069916,412.947937 323.003754,413.900848 
	C323.592834,414.313690 324.181885,414.726532 324.938171,415.843597 
	C330.052856,419.467621 335.433777,422.357574 342.688019,422.313629 
	C343.442535,422.298767 344.197052,422.283905 345.327576,422.726715 
	C346.235443,422.573822 347.143311,422.420929 348.797272,422.410889 
	C349.532806,422.263306 350.268372,422.115692 351.754486,422.224670 
	C365.366821,419.823059 374.738647,411.970123 379.035828,399.060608 
	C382.404602,388.940369 383.132721,378.488220 375.915894,368.471222 
	C372.266449,362.861725 367.746521,358.245392 360.992096,355.163361 
	C346.383911,348.778503 332.080261,351.562469 320.504242,362.507111 
	C305.835175,376.376160 308.827881,403.777283 320.727753,411.245056 
	C320.727753,411.245056 320.644348,411.375763 320.648743,412.050598 
M606.144531,490.035034 
	C606.349487,490.180267 606.554443,490.325470 606.827515,491.279633 
	C605.497559,498.633759 604.138184,505.982697 602.848206,513.343872 
	C602.029114,518.017822 601.442200,522.735352 600.523865,527.388489 
	C598.700867,536.625122 596.741699,545.835205 594.797363,555.047485 
	C593.629395,560.581482 592.256836,566.075134 591.210022,571.630981 
	C590.306213,576.427795 589.732971,581.286926 588.915955,586.773926 
	C602.180298,586.773926 614.974731,586.808594 627.767944,586.702942 
	C628.712952,586.695068 630.358154,585.798828 630.477173,585.108521 
	C631.379883,579.872437 631.982971,574.584717 632.766174,568.657104 
	C625.748779,568.657104 619.498169,568.657104 612.425903,568.657104 
	C613.385559,561.309998 614.045532,554.609741 615.309143,548.025330 
	C615.551270,546.763794 618.082886,545.289062 619.708984,545.078918 
	C623.317139,544.612610 627.052063,545.153381 630.670898,544.731201 
	C632.200134,544.552734 634.406494,543.276306 634.856323,541.991699 
	C636.457581,537.418579 637.435913,532.627258 638.856750,527.116699 
	C632.842163,527.116699 627.142029,527.116699 620.233582,527.116699 
	C621.554932,519.623474 622.626526,513.048401 623.904663,506.513641 
	C624.520508,503.365448 626.751770,502.645966 629.820801,502.833679 
	C634.302856,503.107849 638.817749,503.001862 643.310425,502.835693 
	C644.435181,502.794098 646.381592,502.054657 646.501038,501.379608 
	C647.430786,496.123322 648.005981,490.804321 648.769775,484.893555 
	C637.815918,484.893555 627.482727,484.310974 617.246948,485.059418 
	C607.259094,485.789734 597.283142,483.974060 587.857300,485.219666 
	C581.071228,504.584656 574.447754,523.485657 567.558044,543.146423 
	C568.502869,523.310364 569.402588,504.422150 570.317078,485.222656 
	C564.016357,485.222656 557.795166,485.222656 551.538330,485.222656 
	C550.520020,519.845215 549.510132,554.180847 548.488586,588.911316 
	C554.562195,588.911316 559.525635,588.773376 564.477173,588.957153 
	C568.103821,589.091736 569.703064,587.473267 570.840942,584.104492 
	C574.713013,572.641052 578.847595,561.263550 583.043152,549.912781 
	C590.488647,529.769348 598.052246,509.669556 606.144531,490.035034 
M526.412476,397.810181 
	C520.733704,399.526855 515.054932,401.243530 508.364319,403.266083 
	C514.065308,393.137146 519.539246,383.411591 525.013245,373.686066 
	C521.141541,374.804596 516.728455,370.303589 513.879822,375.391449 
	C504.379913,392.358643 494.421906,409.082581 485.380157,426.288940 
	C477.815613,440.684143 467.587433,451.799500 452.470062,458.181915 
	C445.067657,461.307129 437.219208,462.850403 429.684845,460.386627 
	C422.846161,458.150360 415.998169,455.181580 412.875275,447.199188 
	C409.536469,438.664917 411.104095,430.639984 413.959076,422.709259 
	C416.365570,416.024414 419.339417,409.497711 422.585876,403.169708 
	C434.035614,380.852020 450.867493,364.336792 474.806061,355.687744 
	C481.266785,353.353516 486.924225,353.768768 489.074432,358.305603 
	C490.806519,361.960266 491.342316,366.914398 490.522003,370.904053 
	C488.364624,381.396515 481.882111,389.858582 475.366302,398.062592 
	C467.523346,407.937561 459.809082,418.039032 446.938171,422.118591 
	C444.430481,422.913422 441.677887,424.436981 440.490509,421.470856 
	C439.470795,418.923553 438.995789,415.004303 440.272339,412.900970 
	C444.672119,405.651550 450.836487,400.031067 458.922455,396.749634 
	C459.849640,396.373352 460.859436,394.356293 460.611298,393.424988 
	C460.340179,392.407501 458.702698,391.207397 457.566528,391.101929 
	C456.058472,390.961914 454.176971,391.409302 452.944336,392.288788 
	C444.216492,398.516205 436.567383,405.503235 433.908813,416.677612 
	C432.612122,422.127808 434.274811,425.955017 439.845581,426.705109 
	C449.228119,427.968567 458.326141,426.242889 465.514221,420.329498 
	C478.648163,409.524506 489.849152,396.899994 495.713074,380.461395 
	C497.927124,374.254639 499.668976,367.677338 497.760498,361.248810 
	C494.844604,351.426727 485.899750,347.901794 476.764008,349.772034 
	C468.126648,351.540222 459.516815,354.788605 451.695862,358.907074 
	C437.372986,366.449432 426.493866,377.967438 417.191956,391.264191 
	C407.089142,405.705750 400.548706,421.030487 401.006470,438.939026 
	C401.418640,455.065582 413.402863,467.015289 429.588989,466.760254 
	C435.560211,466.666229 441.415680,466.669159 447.557281,465.031921 
	C454.430878,463.199493 460.070190,459.845276 466.032532,456.627625 
	C470.946228,453.975891 474.886139,448.665161 481.349487,451.203766 
	C492.257996,432.058746 501.464233,412.075806 523.533447,403.151276 
	C522.049133,407.570801 519.927185,411.560608 517.565308,415.402954 
	C513.060181,422.732025 508.130157,429.815613 503.930878,437.311676 
	C500.953339,442.626831 502.711426,450.072998 506.691437,450.774292 
	C510.003510,451.357849 513.786011,451.725250 516.854248,450.689575 
	C522.036316,448.940430 526.818359,446.006287 532.289551,443.314056 
	C533.518372,453.203400 542.999634,449.252319 547.551147,452.441223 
	C549.504150,451.512390 551.025696,450.641632 552.650513,450.058990 
	C554.156372,449.519043 555.795410,449.364166 557.336426,448.906860 
	C567.332703,445.940247 571.432495,436.698425 577.354126,429.567230 
	C583.143494,422.595367 587.956787,414.816559 593.314392,407.476593 
	C593.801880,406.808746 595.133484,406.757050 596.073120,406.419189 
	C596.125671,407.321014 596.377502,408.264282 596.199951,409.118256 
	C594.450684,417.531464 592.914307,426.004578 590.729614,434.306030 
	C589.281067,439.810150 587.437866,445.541656 580.301758,446.750732 
	C580.301758,443.550537 580.301758,440.505096 580.301758,437.354431 
	C578.871643,437.222198 577.885193,437.144928 576.902039,437.037689 
	C573.003540,436.612335 571.533997,439.471222 570.770386,442.303650 
	C570.404236,443.661499 571.433472,445.836212 572.499268,447.057648 
	C575.823669,450.867401 589.379456,452.622314 594.834167,450.079926 
	C599.898682,447.719421 604.871643,445.162415 609.137329,443.060303 
	C611.628906,445.381531 614.312805,450.116272 617.567932,450.548431 
	C637.260254,453.162842 651.523987,444.553192 660.068481,424.153717 
	C657.574524,424.153717 655.412231,424.153717 653.235901,424.153717 
	C653.321716,431.163666 644.969177,441.147827 638.970093,441.473511 
	C639.645447,438.041687 640.443237,434.696259 640.939697,431.306732 
	C641.781982,425.555786 642.069885,419.700195 643.265320,414.030792 
	C644.555176,407.913757 646.822388,402.135315 654.768188,401.299988 
	C653.620483,400.396576 652.801941,399.876984 651.911011,399.672241 
	C642.877930,397.596344 634.835205,400.185394 628.607971,406.504791 
	C623.535156,411.652679 619.439514,417.843445 615.375977,423.884766 
	C610.765198,430.739655 606.558960,437.843170 598.650818,442.093384 
	C599.004456,438.988037 600.191345,436.110077 600.671875,433.118652 
	C601.672607,426.889282 602.248291,420.592896 603.093750,414.336914 
	C604.057312,407.206696 608.229126,402.441986 613.903931,401.368988 
	C610.566650,400.210297 606.746277,398.367249 603.764771,399.276093 
	C598.214478,400.968140 591.966736,403.133514 588.151184,407.141052 
	C581.580750,414.042145 576.778687,422.601379 570.995361,430.284790 
	C565.816772,437.164764 560.434387,443.810181 551.931030,447.139221 
	C548.015625,448.672089 545.478516,447.618958 543.536377,444.519928 
	C541.188599,440.773651 539.970093,436.946136 541.794922,432.262604 
	C543.328186,428.327393 547.313843,427.391235 549.348877,427.941223 
	C554.708740,429.389801 558.189697,426.427734 561.761963,424.114624 
	C568.792114,419.562469 574.892456,414.015259 572.846069,404.302765 
	C572.478271,402.557281 571.080811,399.661560 570.104309,399.638824 
	C564.751221,399.514160 558.309631,398.344177 554.221069,400.812073 
	C542.734924,407.745331 536.195801,418.944275 532.830017,431.937195 
	C532.467590,433.336334 531.905396,434.967163 530.884888,435.862610 
	C526.782776,439.462158 522.632935,443.066040 518.119446,446.101379 
	C516.810181,446.981873 513.849243,446.559998 512.377136,445.606079 
	C511.512787,445.046082 511.404846,441.885651 512.140198,440.543182 
	C515.011536,435.301086 518.444702,430.370850 521.497192,425.222778 
	C524.461670,420.223114 527.538879,415.248260 529.974243,409.988251 
	C532.595093,404.327393 531.222412,399.707947 526.412476,397.810181 
M478.639496,560.958557 
	C479.537415,555.190063 480.251007,549.385254 481.376251,543.661438 
	C483.086548,534.961914 485.139709,526.330383 486.937286,517.647217 
	C488.200134,511.547119 489.331543,505.418335 490.425049,499.285156 
	C491.242645,494.699432 491.906128,490.086273 492.714050,485.008972 
	C487.518158,485.008972 482.693726,485.336731 477.937073,484.909546 
	C473.827637,484.540527 471.953949,486.408417 470.340576,489.775421 
	C465.716064,499.426544 460.848175,508.961029 456.075958,518.541382 
	C455.523804,518.529785 454.971649,518.518250 454.419495,518.506653 
	C452.982727,507.474579 451.545990,496.442505 450.058167,485.018402 
	C445.514130,485.018402 440.885864,485.005249 436.257751,485.022064 
	C431.602631,485.039001 429.355774,487.168182 428.949677,491.998871 
	C428.838409,493.322601 429.091248,494.690247 428.881165,495.989929 
	C428.105164,500.791473 427.307434,505.594025 426.323914,510.356201 
	C425.285370,515.384888 423.882568,520.340210 422.904053,525.379089 
	C422.009094,529.987488 421.684235,534.709778 420.725250,539.301941 
	C418.894775,548.067017 416.626251,556.741760 414.855988,565.517883 
	C413.516785,572.156982 412.669342,578.895264 411.415161,586.769043 
	C417.049316,586.769043 422.921906,586.830994 428.789398,586.686584 
	C429.482452,586.669556 430.594727,585.617126 430.751709,584.882141 
	C431.625732,580.790039 432.311401,576.655212 432.972504,572.520752 
	C433.745575,567.685730 433.985718,562.717163 435.251251,558.020447 
	C437.189758,550.826355 439.510406,543.765747 439.005402,536.169617 
	C438.985199,535.865723 439.495514,535.526611 440.716736,534.029114 
	C442.643616,545.170349 444.380005,555.210205 446.116394,565.250122 
	C446.565216,565.185242 447.014038,565.120422 447.462830,565.055603 
	C452.247559,555.783691 457.032288,546.511719 461.817017,537.239807 
	C462.293182,537.386658 462.769348,537.533508 463.245514,537.680420 
	C462.489441,542.046082 461.771606,546.418884 460.968079,550.775757 
	C459.825073,556.973206 458.555969,563.147888 457.459045,569.353210 
	C456.477844,574.903931 455.656982,580.483032 454.634003,586.869751 
	C458.800201,586.869751 462.101105,586.852234 465.401733,586.873291 
	C473.024750,586.922058 474.275299,585.299377 475.002747,577.406006 
	C475.489044,572.128784 477.139038,566.958801 478.639496,560.958557 
M512.749207,588.892090 
	C517.972412,585.210938 524.504517,582.519043 528.174133,577.663696 
	C539.310242,562.929565 542.656189,545.134399 544.733337,527.244019 
	C545.574890,519.995911 545.682983,512.562317 544.815491,505.264435 
	C544.336853,501.238342 543.839294,496.755554 541.783447,493.454437 
	C532.317444,478.254700 513.952332,480.652527 504.378510,492.006622 
	C498.763306,498.665985 495.316162,506.179169 492.166504,514.233459 
	C488.132660,524.548889 486.646606,535.257385 485.144287,545.966614 
	C484.227936,552.498596 484.537842,559.301819 485.101257,565.914612 
	C485.676361,572.665039 487.845947,578.935059 492.931366,584.041443 
	C498.414307,589.546875 505.085449,589.216248 512.749207,588.892090 
z"/>
<path fill="#FDF3D6" opacity="1.000000" stroke="none" 
	d="
M241.570587,557.254089 
	C237.372604,555.848511 235.973480,553.628357 236.701309,548.678284 
	C238.631790,535.549072 245.554443,526.201965 255.902054,518.486450 
	C269.364655,508.448273 282.963440,498.478241 295.475067,487.325104 
	C302.260040,481.276886 306.910126,472.833832 313.169434,465.202393 
	C313.958191,464.053925 314.100739,463.174072 314.243256,462.294250 
	C314.328552,461.960083 314.413818,461.625946 315.047211,461.136230 
	C315.985504,459.307526 316.375671,457.634308 316.765869,455.961121 
	C317.458008,453.217957 318.150116,450.474792 319.348755,447.367004 
	C319.859192,445.995453 319.863129,444.988495 319.867096,443.981537 
	C319.851685,443.532074 319.836243,443.082611 320.336060,442.308594 
	C322.244263,439.600311 323.637146,437.216522 325.030029,434.832764 
	C327.080566,435.248138 329.131134,435.663483 331.579773,436.522278 
	C332.669342,436.902618 333.360840,436.839600 334.052338,436.776550 
	C334.786774,436.802582 335.521179,436.828644 336.690491,437.380219 
	C340.306488,438.291229 343.478333,438.815643 346.670959,439.030457 
	C351.780029,439.374207 353.440155,441.383118 352.388214,446.358551 
	C350.938751,453.214325 349.467438,460.065460 347.670349,466.937622 
	C346.888672,466.935303 346.442139,466.913971 345.781555,466.642609 
	C344.710815,468.108154 343.220398,469.785889 343.115326,471.546387 
	C342.789520,477.003784 342.797089,482.500885 343.029510,487.967529 
	C343.440826,497.640015 346.879456,506.360260 352.007355,514.472290 
	C354.221558,517.974976 356.681915,520.728088 360.447357,517.547119 
	C363.195282,520.164185 365.667908,522.519104 368.140533,524.873962 
	C368.140533,524.873962 368.001221,525.000000 367.953583,525.301636 
	C369.328461,527.975952 370.741882,530.354309 372.175201,532.720459 
	C376.510345,539.876892 380.957458,546.968323 385.144409,554.210327 
	C386.951416,557.335754 388.226471,560.768799 389.743195,564.062073 
	C389.891907,565.119202 390.040649,566.176331 389.789673,567.641113 
	C388.910126,568.426025 388.430298,568.803284 387.531830,569.115601 
	C385.429260,569.154968 383.745331,569.259277 381.900940,569.023804 
	C380.143921,569.042908 378.547363,569.401794 376.641846,569.885742 
	C375.895721,569.965637 375.458527,569.920349 374.996246,569.518005 
	C372.864563,569.273438 370.757965,569.385986 368.651367,569.498535 
	C369.117493,570.652466 369.583618,571.806396 370.025085,572.980164 
	C370.000427,573.000000 370.041260,572.951843 369.999420,573.312805 
	C370.992554,573.677734 372.027527,573.681702 373.413696,573.563721 
	C374.495575,573.519592 375.226196,573.597473 376.112610,574.042114 
	C378.817017,575.156128 381.365692,575.903381 383.914368,576.650635 
	C383.986298,577.110718 384.058197,577.570740 384.130127,578.030823 
	C382.887756,578.672180 381.665131,579.356079 380.398315,579.944885 
	C378.572327,580.793701 376.714264,581.573669 374.869904,582.383057 
	C372.687683,582.630005 370.505432,582.877014 367.511627,582.959595 
	C364.236908,582.822205 361.773773,582.849304 358.961060,582.630615 
	C355.294922,582.566589 351.978363,582.748291 348.255615,582.931763 
	C346.073212,583.044678 344.296936,583.156006 342.520660,583.267334 
	C340.013794,583.123352 337.506897,582.979370 334.491180,582.371826 
	C332.865234,581.923889 331.748169,581.939575 330.276398,581.934265 
	C328.742310,581.823914 327.562866,581.734558 326.245605,581.345581 
	C324.945007,581.016785 323.782318,580.987610 322.345032,580.945740 
	C321.521576,580.904846 320.972626,580.876587 320.231476,580.504272 
	C316.570282,579.758301 313.101288,579.356323 309.356079,578.931030 
	C308.526489,578.874878 307.973114,578.841919 307.270935,578.500854 
	C305.951874,578.114136 304.781586,578.035583 303.411224,577.924316 
	C302.946777,577.831116 302.679169,577.793884 302.229004,577.442383 
	C295.635529,575.149658 289.239929,573.128418 282.783600,571.324219 
	C281.990417,571.102600 280.872803,572.041931 279.905548,572.443237 
	C279.174042,572.353699 278.442535,572.264160 277.355713,571.627319 
	C271.477600,569.515625 265.954773,567.951111 260.431976,566.386658 
	C258.798706,565.759644 257.165436,565.132629 255.113998,563.994934 
	C254.066208,563.354004 253.436615,563.223694 252.807022,563.093384 
	C251.645233,562.634155 250.483429,562.174988 248.970734,561.167419 
	C246.270065,559.497375 243.920319,558.375732 241.570587,557.254089 
M271.096283,560.007019 
	C271.096283,560.007019 271.237579,559.705078 271.251160,560.327026 
	C272.171753,560.542603 273.092346,560.758240 274.654053,561.046875 
	C275.074799,561.127747 275.495544,561.208618 276.094086,561.974670 
	C280.402588,562.957153 284.711090,563.939636 289.747772,564.998230 
	C290.468658,565.109497 291.189575,565.220764 292.092377,566.001282 
	C294.408478,566.290222 296.724548,566.579163 299.658020,567.043396 
	C300.072083,567.142883 300.486115,567.242371 301.065582,568.000122 
	C303.059326,568.271545 305.053070,568.542969 307.664307,568.996399 
	C308.083832,569.078247 308.503326,569.160095 309.105774,569.950867 
	C312.763153,570.221802 316.420532,570.492798 320.857300,570.630066 
	C321.886505,570.804321 322.915680,570.978577 324.062012,571.880981 
	C325.736542,571.768188 327.411041,571.655396 329.903625,571.402161 
	C331.262573,571.598633 332.621490,571.795105 334.054718,572.745911 
	C335.733002,572.650146 337.411255,572.554382 339.957428,572.304321 
	C342.288330,572.569214 344.619232,572.834106 347.108185,573.881592 
	C351.046173,574.159668 354.982574,574.479309 358.925446,574.625732 
	C359.198730,574.635864 359.519867,573.357727 359.700348,572.146362 
	C359.732544,571.785522 359.764771,571.424683 360.383362,570.855164 
	C360.304749,570.351868 360.226135,569.848633 360.147522,569.345337 
	C359.727875,569.695618 359.308228,570.045959 357.984467,570.494141 
	C354.347992,570.232117 350.711517,569.970093 346.957886,569.042053 
	C345.946991,569.205872 344.936066,569.369629 343.099365,569.648315 
	C341.733673,569.439819 340.367981,569.231262 338.908386,568.277405 
	C336.911163,568.325745 334.913971,568.374084 332.176514,568.570618 
	C331.446289,568.410095 330.716034,568.249573 329.861542,567.308105 
	C325.548035,566.995239 321.234528,566.682434 316.182190,566.420898 
	C315.463989,566.254822 314.745789,566.088745 313.952423,565.256836 
	C312.944122,565.297424 311.935791,565.338013 310.139099,565.445618 
	C309.112946,565.234497 308.086823,565.023376 306.938080,564.095947 
	C305.653442,563.451904 304.434143,562.535095 303.073303,562.209106 
	C295.585175,560.415039 288.075592,558.703613 280.544128,557.101196 
	C278.061798,556.573059 275.492249,556.454956 272.357483,556.171448 
	C271.809021,555.937927 271.260559,555.704407 270.781097,554.743408 
	C269.503021,554.576172 268.224976,554.408936 266.198273,554.157166 
	C259.448151,551.418640 252.719772,548.623596 245.924042,546.003357 
	C244.921677,545.616882 243.600235,546.057922 242.426392,546.116150 
	C242.950897,547.029175 243.475403,547.942261 244.328949,549.437988 
	C244.742020,549.448425 245.155075,549.458862 246.078445,549.523682 
	C246.370239,549.697815 246.662033,549.871948 247.220444,550.588684 
	C247.594955,550.662598 247.969482,550.736511 248.967072,550.968994 
	C250.294525,551.652588 251.621994,552.336243 253.290756,553.575989 
	C253.698624,553.591553 254.106506,553.607117 254.825012,553.600098 
	C254.825012,553.600098 255.008713,553.851624 255.295502,554.482361 
	C255.929688,554.567261 256.563843,554.652222 257.018341,555.000000 
	C257.018341,555.000000 257.203461,554.737976 257.286285,555.468567 
	C261.016907,556.537476 264.747498,557.606323 268.804565,558.640869 
	C268.804565,558.640869 269.004883,558.900940 269.302887,559.520996 
	C269.941864,559.580383 270.580811,559.639771 271.096283,560.007019 
z"/>
<path fill="#60DE6B" opacity="1.000000" stroke="none" 
	d="
M526.779968,397.830444 
	C531.222412,399.707947 532.595093,404.327393 529.974243,409.988251 
	C527.538879,415.248260 524.461670,420.223114 521.497192,425.222778 
	C518.444702,430.370850 515.011536,435.301086 512.140198,440.543182 
	C511.404846,441.885651 511.512787,445.046082 512.377136,445.606079 
	C513.849243,446.559998 516.810181,446.981873 518.119446,446.101379 
	C522.632935,443.066040 526.782776,439.462158 530.884888,435.862610 
	C531.905396,434.967163 532.467590,433.336334 532.830017,431.937195 
	C536.195801,418.944275 542.734924,407.745331 554.221069,400.812073 
	C558.309631,398.344177 564.751221,399.514160 570.104309,399.638824 
	C571.080811,399.661560 572.478271,402.557281 572.846069,404.302765 
	C574.892456,414.015259 568.792114,419.562469 561.761963,424.114624 
	C558.189697,426.427734 554.708740,429.389801 549.348877,427.941223 
	C547.313843,427.391235 543.328186,428.327393 541.794922,432.262604 
	C539.970093,436.946136 541.188599,440.773651 543.536377,444.519928 
	C545.478516,447.618958 548.015625,448.672089 551.931030,447.139221 
	C560.434387,443.810181 565.816772,437.164764 570.995361,430.284790 
	C576.778687,422.601379 581.580750,414.042145 588.151184,407.141052 
	C591.966736,403.133514 598.214478,400.968140 603.764771,399.276093 
	C606.746277,398.367249 610.566650,400.210297 613.903931,401.368988 
	C608.229126,402.441986 604.057312,407.206696 603.093750,414.336914 
	C602.248291,420.592896 601.672607,426.889282 600.671875,433.118652 
	C600.191345,436.110077 599.004456,438.988037 598.650818,442.093384 
	C606.558960,437.843170 610.765198,430.739655 615.375977,423.884766 
	C619.439514,417.843445 623.535156,411.652679 628.607971,406.504791 
	C634.835205,400.185394 642.877930,397.596344 651.911011,399.672241 
	C652.801941,399.876984 653.620483,400.396576 654.768188,401.299988 
	C646.822388,402.135315 644.555176,407.913757 643.265320,414.030792 
	C642.069885,419.700195 641.781982,425.555786 640.939697,431.306732 
	C640.443237,434.696259 639.645447,438.041687 638.970093,441.473511 
	C644.969177,441.147827 653.321716,431.163666 653.235901,424.153717 
	C655.412231,424.153717 657.574524,424.153717 660.068481,424.153717 
	C651.523987,444.553192 637.260254,453.162842 617.567932,450.548431 
	C614.312805,450.116272 611.628906,445.381531 609.137329,443.060303 
	C604.871643,445.162415 599.898682,447.719421 594.834167,450.079926 
	C589.379456,452.622314 575.823669,450.867401 572.499268,447.057648 
	C571.433472,445.836212 570.404236,443.661499 570.770386,442.303650 
	C571.533997,439.471222 573.003540,436.612335 576.902039,437.037689 
	C577.885193,437.144928 578.871643,437.222198 580.301758,437.354431 
	C580.301758,440.505096 580.301758,443.550537 580.301758,446.750732 
	C587.437866,445.541656 589.281067,439.810150 590.729614,434.306030 
	C592.914307,426.004578 594.450684,417.531464 596.199951,409.118256 
	C596.377502,408.264282 596.125671,407.321014 596.073120,406.419189 
	C595.133484,406.757050 593.801880,406.808746 593.314392,407.476593 
	C587.956787,414.816559 583.143494,422.595367 577.354126,429.567230 
	C571.432495,436.698425 567.332703,445.940247 557.336426,448.906860 
	C555.795410,449.364166 554.156372,449.519043 552.650513,450.058990 
	C551.025696,450.641632 549.504150,451.512390 547.551147,452.441223 
	C542.999634,449.252319 533.518372,453.203400 532.289551,443.314056 
	C526.818359,446.006287 522.036316,448.940430 516.854248,450.689575 
	C513.786011,451.725250 510.003510,451.357849 506.691437,450.774292 
	C502.711426,450.072998 500.953339,442.626831 503.930878,437.311676 
	C508.130157,429.815613 513.060181,422.732025 517.565308,415.402954 
	C519.927185,411.560608 522.049133,407.570801 523.533447,403.151276 
	C501.464233,412.075806 492.257996,432.058746 481.349487,451.203766 
	C474.886139,448.665161 470.946228,453.975891 466.032532,456.627625 
	C460.070190,459.845276 454.430878,463.199493 447.557281,465.031921 
	C441.415680,466.669159 435.560211,466.666229 429.588989,466.760254 
	C413.402863,467.015289 401.418640,455.065582 401.006470,438.939026 
	C400.548706,421.030487 407.089142,405.705750 417.191956,391.264191 
	C426.493866,377.967438 437.372986,366.449432 451.695862,358.907074 
	C459.516815,354.788605 468.126648,351.540222 476.764008,349.772034 
	C485.899750,347.901794 494.844604,351.426727 497.760498,361.248810 
	C499.668976,367.677338 497.927124,374.254639 495.713074,380.461395 
	C489.849152,396.899994 478.648163,409.524506 465.514221,420.329498 
	C458.326141,426.242889 449.228119,427.968567 439.845581,426.705109 
	C434.274811,425.955017 432.612122,422.127808 433.908813,416.677612 
	C436.567383,405.503235 444.216492,398.516205 452.944336,392.288788 
	C454.176971,391.409302 456.058472,390.961914 457.566528,391.101929 
	C458.702698,391.207397 460.340179,392.407501 460.611298,393.424988 
	C460.859436,394.356293 459.849640,396.373352 458.922455,396.749634 
	C450.836487,400.031067 444.672119,405.651550 440.272339,412.900970 
	C438.995789,415.004303 439.470795,418.923553 440.490509,421.470856 
	C441.677887,424.436981 444.430481,422.913422 446.938171,422.118591 
	C459.809082,418.039032 467.523346,407.937561 475.366302,398.062592 
	C481.882111,389.858582 488.364624,381.396515 490.522003,370.904053 
	C491.342316,366.914398 490.806519,361.960266 489.074432,358.305603 
	C486.924225,353.768768 481.266785,353.353516 474.806061,355.687744 
	C450.867493,364.336792 434.035614,380.852020 422.585876,403.169708 
	C419.339417,409.497711 416.365570,416.024414 413.959076,422.709259 
	C411.104095,430.639984 409.536469,438.664917 412.875275,447.199188 
	C415.998169,455.181580 422.846161,458.150360 429.684845,460.386627 
	C437.219208,462.850403 445.067657,461.307129 452.470062,458.181915 
	C467.587433,451.799500 477.815613,440.684143 485.380157,426.288940 
	C494.421906,409.082581 504.379913,392.358643 513.879822,375.391449 
	C516.728455,370.303589 521.141541,374.804596 525.013245,373.686066 
	C519.539246,383.411591 514.065308,393.137146 508.364319,403.266083 
	C515.054932,401.243530 520.733704,399.526855 526.779968,397.830444 
M636.361450,410.015137 
	C636.361450,408.758148 636.361450,407.501160 636.361450,405.596466 
	C624.070496,412.948853 621.370667,426.109558 612.692932,436.613495 
	C622.719238,435.663330 620.952820,441.736725 619.921448,447.034912 
	C624.940735,446.418152 627.888611,444.217438 628.949829,439.963715 
	C631.384888,430.203430 633.566772,420.379944 636.361450,410.015137 
M549.572754,422.835114 
	C553.549316,420.943481 558.344910,419.866974 561.269287,416.928253 
	C564.125793,414.057709 565.464111,409.405060 566.706909,405.303802 
	C567.429016,402.920776 565.561829,401.133881 563.227173,403.236786 
	C557.232117,408.636810 551.078796,414.021729 549.572754,422.835114 
z"/>
<path fill="#FBFBFB" opacity="1.000000" stroke="none" 
	d="
M605.566467,489.551514 
	C598.052246,509.669556 590.488647,529.769348 583.043152,549.912781 
	C578.847595,561.263550 574.713013,572.641052 570.840942,584.104492 
	C569.703064,587.473267 568.103821,589.091736 564.477173,588.957153 
	C559.525635,588.773376 554.562195,588.911316 548.488586,588.911316 
	C549.510132,554.180847 550.520020,519.845215 551.538330,485.222656 
	C557.795166,485.222656 564.016357,485.222656 570.317078,485.222656 
	C569.402588,504.422150 568.502869,523.310364 567.558044,543.146423 
	C574.447754,523.485657 581.071228,504.584656 587.857300,485.219666 
	C597.283142,483.974060 607.259094,485.789734 617.246948,485.059418 
	C627.482727,484.310974 637.815918,484.893555 648.769775,484.893555 
	C648.005981,490.804321 647.430786,496.123322 646.501038,501.379608 
	C646.381592,502.054657 644.435181,502.794098 643.310425,502.835693 
	C638.817749,503.001862 634.302856,503.107849 629.820801,502.833679 
	C626.751770,502.645966 624.520508,503.365448 623.904663,506.513641 
	C622.626526,513.048401 621.554932,519.623474 620.233582,527.116699 
	C627.142029,527.116699 632.842163,527.116699 638.856750,527.116699 
	C637.435913,532.627258 636.457581,537.418579 634.856323,541.991699 
	C634.406494,543.276306 632.200134,544.552734 630.670898,544.731201 
	C627.052063,545.153381 623.317139,544.612610 619.708984,545.078918 
	C618.082886,545.289062 615.551270,546.763794 615.309143,548.025330 
	C614.045532,554.609741 613.385559,561.309998 612.425903,568.657104 
	C619.498169,568.657104 625.748779,568.657104 632.766174,568.657104 
	C631.982971,574.584717 631.379883,579.872437 630.477173,585.108521 
	C630.358154,585.798828 628.712952,586.695068 627.767944,586.702942 
	C614.974731,586.808594 602.180298,586.773926 588.915955,586.773926 
	C589.732971,581.286926 590.306213,576.427795 591.210022,571.630981 
	C592.256836,566.075134 593.629395,560.581482 594.797363,555.047485 
	C596.741699,545.835205 598.700867,536.625122 600.523865,527.388489 
	C601.442200,522.735352 602.029114,518.017822 602.848206,513.343872 
	C604.138184,505.982697 605.497559,498.633759 606.885010,490.579163 
	C606.483826,489.769623 606.025146,489.660583 605.566467,489.551514 
z"/>
<path fill="#FBFBFB" opacity="1.000000" stroke="none" 
	d="
M478.453918,561.349670 
	C477.139038,566.958801 475.489044,572.128784 475.002747,577.406006 
	C474.275299,585.299377 473.024750,586.922058 465.401733,586.873291 
	C462.101105,586.852234 458.800201,586.869751 454.634003,586.869751 
	C455.656982,580.483032 456.477844,574.903931 457.459045,569.353210 
	C458.555969,563.147888 459.825073,556.973206 460.968079,550.775757 
	C461.771606,546.418884 462.489441,542.046082 463.245514,537.680420 
	C462.769348,537.533508 462.293182,537.386658 461.817017,537.239807 
	C457.032288,546.511719 452.247559,555.783691 447.462830,565.055603 
	C447.014038,565.120422 446.565216,565.185242 446.116394,565.250122 
	C444.380005,555.210205 442.643616,545.170349 440.716736,534.029114 
	C439.495514,535.526611 438.985199,535.865723 439.005402,536.169617 
	C439.510406,543.765747 437.189758,550.826355 435.251251,558.020447 
	C433.985718,562.717163 433.745575,567.685730 432.972504,572.520752 
	C432.311401,576.655212 431.625732,580.790039 430.751709,584.882141 
	C430.594727,585.617126 429.482452,586.669556 428.789398,586.686584 
	C422.921906,586.830994 417.049316,586.769043 411.415161,586.769043 
	C412.669342,578.895264 413.516785,572.156982 414.855988,565.517883 
	C416.626251,556.741760 418.894775,548.067017 420.725250,539.301941 
	C421.684235,534.709778 422.009094,529.987488 422.904053,525.379089 
	C423.882568,520.340210 425.285370,515.384888 426.323914,510.356201 
	C427.307434,505.594025 428.105164,500.791473 428.881165,495.989929 
	C429.091248,494.690247 428.838409,493.322601 428.949677,491.998871 
	C429.355774,487.168182 431.602631,485.039001 436.257751,485.022064 
	C440.885864,485.005249 445.514130,485.018402 450.058167,485.018402 
	C451.545990,496.442505 452.982727,507.474579 454.419495,518.506653 
	C454.971649,518.518250 455.523804,518.529785 456.075958,518.541382 
	C460.848175,508.961029 465.716064,499.426544 470.340576,489.775421 
	C471.953949,486.408417 473.827637,484.540527 477.937073,484.909546 
	C482.693726,485.336731 487.518158,485.008972 492.714050,485.008972 
	C491.906128,490.086273 491.242645,494.699432 490.425049,499.285156 
	C489.331543,505.418335 488.200134,511.547119 486.937286,517.647217 
	C485.139709,526.330383 483.086548,534.961914 481.376251,543.661438 
	C480.251007,549.385254 479.537415,555.190063 478.453918,561.349670 
M464.939697,534.625366 
	C464.553406,534.143188 464.167114,533.661011 463.780823,533.178772 
	C463.429596,534.130188 463.078369,535.081665 462.727142,536.033081 
	C463.385559,535.858215 464.043945,535.683350 464.939697,534.625366 
z"/>
<path fill="#FBFBFB" opacity="1.000000" stroke="none" 
	d="
M512.318115,588.935791 
	C505.085449,589.216248 498.414307,589.546875 492.931366,584.041443 
	C487.845947,578.935059 485.676361,572.665039 485.101257,565.914612 
	C484.537842,559.301819 484.227936,552.498596 485.144287,545.966614 
	C486.646606,535.257385 488.132660,524.548889 492.166504,514.233459 
	C495.316162,506.179169 498.763306,498.665985 504.378510,492.006622 
	C513.952332,480.652527 532.317444,478.254700 541.783447,493.454437 
	C543.839294,496.755554 544.336853,501.238342 544.815491,505.264435 
	C545.682983,512.562317 545.574890,519.995911 544.733337,527.244019 
	C542.656189,545.134399 539.310242,562.929565 528.174133,577.663696 
	C524.504517,582.519043 517.972412,585.210938 512.318115,588.935791 
M514.902405,508.472015 
	C512.227905,517.451599 508.702728,526.283569 507.112061,535.451233 
	C505.435974,545.111145 505.395813,555.086060 505.133728,564.936401 
	C505.074432,567.165649 507.049988,569.449036 508.437805,572.465942 
	C516.301636,564.429871 518.310181,555.410706 520.842285,546.719482 
	C522.067932,542.512451 522.583984,538.084351 523.241333,533.729126 
	C524.519775,525.259338 526.060425,516.796082 526.625061,508.272675 
	C526.782898,505.890106 524.457642,502.054504 522.295715,501.103485 
	C518.903625,499.611389 517.372986,503.222412 516.157593,506.021271 
	C515.894592,506.626892 515.496399,507.173828 514.902405,508.472015 
z"/>
<path fill="#FDF3D6" opacity="1.000000" stroke="none" 
	d="
M361.382172,355.733643 
	C367.746521,358.245392 372.266449,362.861725 375.846130,369.215088 
	C375.916016,373.747955 376.055634,377.536987 376.093781,381.644135 
	C375.663177,382.974548 375.334045,383.986847 374.649841,385.077728 
	C373.856842,385.970520 373.360474,386.759064 372.990112,387.602875 
	C369.529297,395.487671 368.228394,405.140564 360.218903,409.714539 
	C354.850830,412.780090 354.014526,417.888580 351.003906,421.968079 
	C350.268372,422.115692 349.532806,422.263306 348.274048,422.027466 
	C346.817719,421.852356 345.884644,422.060699 344.951569,422.269043 
	C344.197052,422.283905 343.442535,422.298767 342.317169,421.800720 
	C336.221191,419.238312 330.496094,417.188843 324.770966,415.139404 
	C324.181885,414.726532 323.592834,414.313690 322.947815,413.268524 
	C322.142700,412.216034 321.393524,411.795898 320.644348,411.375763 
	C320.644348,411.375763 320.727753,411.245056 320.800537,410.915710 
	C319.540283,408.206848 318.253082,405.800232 316.865509,403.453003 
	C312.874451,396.701477 315.019440,389.374817 315.068604,382.312256 
	C315.097839,378.107605 315.198120,373.098267 317.371643,369.866425 
	C323.605347,360.597351 332.292389,353.821808 343.924347,353.249176 
	C349.688873,352.965393 355.559540,354.837097 361.382172,355.733643 
z"/>
<path fill="#D3BE9F" opacity="1.000000" stroke="none" 
	d="
M348.005493,466.918579 
	C349.467438,460.065460 350.938751,453.214325 352.388214,446.358551 
	C353.440155,441.383118 351.780029,439.374207 346.670959,439.030457 
	C343.478333,438.815643 340.306488,438.291229 337.034485,437.517944 
	C343.225006,437.130127 349.506378,437.130127 356.350952,437.130127 
	C355.561951,443.549103 354.650909,449.417542 354.158936,455.320923 
	C353.399292,464.435791 352.494019,473.571808 352.436401,482.703827 
	C352.355957,495.454193 358.249512,506.442657 364.045258,517.343445 
	C365.293060,519.690308 366.804138,521.897278 368.167236,524.521362 
	C365.667908,522.519104 363.195282,520.164185 360.447357,517.547119 
	C356.681915,520.728088 354.221558,517.974976 352.007355,514.472290 
	C346.879456,506.360260 343.440826,497.640015 343.029510,487.967529 
	C342.797089,482.500885 342.789520,477.003784 343.115326,471.546387 
	C343.220398,469.785889 344.710815,468.108154 345.614716,467.032959 
	C344.190399,481.908386 343.822968,495.956451 352.185028,508.508820 
	C351.998077,505.104767 350.487122,501.898590 350.182373,498.581604 
	C349.214813,488.049469 348.697083,477.476044 348.005493,466.918579 
z"/>
<path fill="#FDF3D6" opacity="1.000000" stroke="none" 
	d="
M354.920410,433.733582 
	C339.766663,435.156311 325.174988,434.000793 312.238647,423.807495 
	C311.718414,420.448120 311.369141,417.748169 311.019897,415.048218 
	C311.019897,415.048218 310.995636,415.003632 311.374390,415.027283 
	C312.103973,414.554626 312.454773,414.058289 312.805603,413.561981 
	C312.805603,413.561981 313.208862,413.473114 313.763611,413.699158 
	C315.822784,414.312378 317.327271,414.699585 318.831726,415.086792 
	C318.831726,415.086792 318.927765,415.076691 318.876953,415.482361 
	C320.875427,420.571075 324.444244,422.822540 329.561218,422.596710 
	C329.561218,422.596710 329.856567,422.624115 330.048279,423.076813 
	C330.868988,423.625397 331.498016,423.721283 332.127045,423.817139 
	C332.127045,423.817139 332.079468,423.988678 332.109039,424.289368 
	C335.961365,425.689545 339.758209,427.542267 343.614258,427.674988 
	C347.413879,427.805756 351.273438,426.194214 355.106720,425.347076 
	C356.787933,424.792450 358.469147,424.237823 360.636902,423.923767 
	C362.729034,423.663025 364.307159,423.012268 365.949402,422.710785 
	C367.123108,422.495300 368.382812,422.748383 369.604156,422.792358 
	C369.281250,424.130066 369.196411,425.601593 368.547638,426.756195 
	C368.147675,427.468140 366.889374,427.700226 366.013550,428.141998 
	C362.316437,430.007080 358.618225,431.869934 354.920410,433.733582 
z"/>
<path fill="#D3BE9F" opacity="1.000000" stroke="none" 
	d="
M351.379211,422.096375 
	C354.014526,417.888580 354.850830,412.780090 360.218903,409.714539 
	C368.228394,405.140564 369.529297,395.487671 372.990112,387.602875 
	C373.360474,386.759064 373.856842,385.970520 374.773376,385.480072 
	C372.544983,394.126953 369.837952,402.450073 367.331482,410.156586 
	C373.460693,406.736725 380.711060,390.771179 378.903961,382.937836 
	C378.740662,382.229919 377.132446,381.855347 376.195221,381.325989 
	C376.055634,377.536987 375.916016,373.747955 375.855957,369.566040 
	C383.132721,378.488220 382.404602,388.940369 379.035828,399.060608 
	C374.738647,411.970123 365.366821,419.823059 351.379211,422.096375 
M361.414154,412.410522 
	C359.524689,413.575165 357.635223,414.739807 355.745758,415.904449 
	C356.138062,416.556335 356.530396,417.208221 356.922699,417.860107 
	C358.984436,416.673431 361.053680,415.498535 363.059662,414.224060 
	C363.104492,414.195557 362.429749,413.034424 361.414154,412.410522 
z"/>
<path fill="#D3BE9F" opacity="1.000000" stroke="none" 
	d="
M361.187134,355.448486 
	C355.559540,354.837097 349.688873,352.965393 343.924347,353.249176 
	C332.292389,353.821808 323.605347,360.597351 317.371643,369.866425 
	C315.198120,373.098267 315.097839,378.107605 315.068604,382.312256 
	C315.019440,389.374817 312.874451,396.701477 316.865509,403.453003 
	C318.253082,405.800232 319.540283,408.206848 320.732483,410.952820 
	C308.827881,403.777283 305.835175,376.376160 320.504242,362.507111 
	C332.080261,351.562469 346.383911,348.778503 361.187134,355.448486 
z"/>
<path fill="#D3BE9F" opacity="1.000000" stroke="none" 
	d="
M389.886200,563.663940 
	C388.226471,560.768799 386.951416,557.335754 385.144409,554.210327 
	C380.957458,546.968323 376.510345,539.876892 372.175201,532.720459 
	C370.741882,530.354309 369.328461,527.975952 368.021667,525.237366 
	C377.827515,536.305237 387.755005,547.603638 389.886200,563.663940 
z"/>
<path fill="#D3BE9F" opacity="1.000000" stroke="none" 
	d="
M387.950470,569.180542 
	C388.430298,568.803284 388.910126,568.426025 389.723969,568.037964 
	C391.310059,580.476868 388.947998,582.371582 375.258728,582.630249 
	C376.714264,581.573669 378.572327,580.793701 380.398315,579.944885 
	C381.665131,579.356079 382.887756,578.672180 384.130127,578.030823 
	C384.058197,577.570740 383.986298,577.110718 383.914368,576.650635 
	C381.365692,575.903381 378.817017,575.156128 376.382141,573.748779 
	C378.420685,572.853271 380.359222,572.696716 382.266510,572.361938 
	C384.505981,571.968872 387.376648,572.588928 387.950470,569.180542 
z"/>
<path fill="#60DE6B" opacity="1.000000" stroke="none" 
	d="
M326.383453,581.645142 
	C327.562866,581.734558 328.742310,581.823914 330.373932,582.229065 
	C330.828247,582.751221 330.830383,582.957642 330.832489,583.164062 
	C324.833435,582.945679 318.780273,583.151672 312.849731,582.395691 
	C306.259125,581.555481 299.772797,579.872803 293.261292,578.463684 
	C292.342194,578.264709 291.537506,577.536987 290.931946,576.552246 
	C294.925476,576.626953 298.666901,577.203430 302.408356,577.779846 
	C302.679169,577.793884 302.946777,577.831116 303.723053,578.196777 
	C305.296570,578.604370 306.358154,578.706665 307.419739,578.808960 
	C307.973114,578.841919 308.526489,578.874878 309.675293,579.207520 
	C313.655029,579.954346 317.039368,580.401306 320.423706,580.848328 
	C320.972626,580.876587 321.521576,580.904846 322.659576,581.209473 
	C324.293579,581.538879 325.338531,581.592041 326.383453,581.645142 
z"/>
<path fill="#D3BE9F" opacity="1.000000" stroke="none" 
	d="
M355.291138,433.919800 
	C358.618225,431.869934 362.316437,430.007080 366.013550,428.141998 
	C366.889374,427.700226 368.147675,427.468140 368.547638,426.756195 
	C369.196411,425.601593 369.281250,424.130066 369.604156,422.792358 
	C368.382812,422.748383 367.123108,422.495300 365.949402,422.710785 
	C364.307159,423.012268 362.729034,423.663025 361.004883,423.833557 
	C363.809113,421.664551 366.731934,419.826355 369.535767,418.062988 
	C374.515289,421.636993 374.241333,427.369781 368.815643,429.899719 
	C364.677063,431.829468 360.063904,432.741394 355.291138,433.919800 
z"/>
<path fill="#60DE6B" opacity="1.000000" stroke="none" 
	d="
M342.365479,583.614014 
	C344.296936,583.156006 346.073212,583.044678 348.604248,583.188110 
	C352.676208,583.254028 355.993439,583.065247 359.310638,582.876465 
	C361.773773,582.849304 364.236908,582.822205 367.032715,582.967712 
	C365.837402,584.214783 364.248535,586.283447 362.791748,586.194214 
	C355.911469,585.773193 349.067291,584.761658 342.365479,583.614014 
z"/>
<path fill="#D3BE9F" opacity="1.000000" stroke="none" 
	d="
M302.229004,577.442383 
	C298.666901,577.203430 294.925476,576.626953 290.939636,576.200073 
	C287.221924,575.260132 283.748596,574.170654 280.090393,572.762207 
	C280.872803,572.041931 281.990417,571.102600 282.783600,571.324219 
	C289.239929,573.128418 295.635529,575.149658 302.229004,577.442383 
z"/>
<path fill="#D3BE9F" opacity="1.000000" stroke="none" 
	d="
M324.854553,415.491516 
	C330.496094,417.188843 336.221191,419.238312 341.964783,421.656677 
	C335.433777,422.357574 330.052856,419.467621 324.854553,415.491516 
z"/>
<path fill="#D3BE9F" opacity="1.000000" stroke="none" 
	d="
M354.700806,425.223755 
	C351.273438,426.194214 347.413879,427.805756 343.614258,427.674988 
	C339.758209,427.542267 335.961365,425.689545 332.146790,424.208618 
	C339.534973,424.251587 346.914948,424.675995 354.700806,425.223755 
z"/>
<path fill="#D3BE9F" opacity="1.000000" stroke="none" 
	d="
M260.604309,566.735352 
	C265.954773,567.951111 271.477600,569.515625 277.039368,571.430908 
	C271.644440,570.215759 266.210510,568.649902 260.604309,566.735352 
z"/>
<path fill="#D3BE9F" opacity="1.000000" stroke="none" 
	d="
M329.392212,422.281921 
	C324.444244,422.822540 320.875427,420.571075 318.866577,415.529541 
	C322.345734,417.436401 325.784454,419.701782 329.392212,422.281921 
z"/>
<path fill="#D3BE9F" opacity="1.000000" stroke="none" 
	d="
M324.794983,434.527344 
	C323.637146,437.216522 322.244263,439.600311 320.501099,442.008057 
	C320.858978,438.998718 317.841949,433.862488 324.794983,434.527344 
z"/>
<path fill="#D3BE9F" opacity="1.000000" stroke="none" 
	d="
M310.682892,415.142975 
	C311.369141,417.748169 311.718414,420.448120 312.062744,423.502716 
	C307.735565,421.195923 307.422119,419.617737 310.682892,415.142975 
z"/>
<path fill="#D3BE9F" opacity="1.000000" stroke="none" 
	d="
M316.462311,456.131439 
	C316.375671,457.634308 315.985504,459.307526 315.243286,460.962494 
	C315.313782,459.396759 315.736267,457.849274 316.462311,456.131439 
z"/>
<path fill="#D3BE9F" opacity="1.000000" stroke="none" 
	d="
M241.747833,557.552002 
	C243.920319,558.375732 246.270065,559.497375 248.753082,560.940735 
	C246.565918,560.124878 244.245499,558.987366 241.747833,557.552002 
z"/>
<path fill="#D3BE9F" opacity="1.000000" stroke="none" 
	d="
M318.795349,414.752808 
	C317.327271,414.699585 315.822784,414.312378 313.938019,413.809631 
	C315.761200,410.564331 317.179291,413.071594 318.795349,414.752808 
z"/>
<path fill="#D3BE9F" opacity="1.000000" stroke="none" 
	d="
M345.139587,422.497864 
	C345.884644,422.060699 346.817719,421.852356 347.901001,421.956024 
	C347.143311,422.420929 346.235443,422.573822 345.139587,422.497864 
z"/>
<path fill="#D3BE9F" opacity="1.000000" stroke="none" 
	d="
M319.576752,444.174988 
	C319.863129,444.988495 319.859192,445.995453 319.526489,447.020508 
	C319.227295,446.148560 319.256836,445.258514 319.576752,444.174988 
z"/>
<path fill="#D3BE9F" opacity="1.000000" stroke="none" 
	d="
M331.262421,583.127014 
	C330.830383,582.957642 330.828247,582.751221 330.728607,582.250061 
	C331.748169,581.939575 332.865234,581.923889 334.057007,582.207336 
	C333.318542,582.700989 332.505463,582.895447 331.262421,583.127014 
z"/>
<path fill="#D3BE9F" opacity="1.000000" stroke="none" 
	d="
M320.646545,411.713196 
	C321.393524,411.795898 322.142700,412.216034 322.836182,413.016418 
	C322.069916,412.947937 321.359314,412.499268 320.646545,411.713196 
z"/>
<path fill="#D3BE9F" opacity="1.000000" stroke="none" 
	d="
M333.858887,436.535553 
	C333.360840,436.839600 332.669342,436.902618 331.938721,436.683533 
	C332.488190,436.365753 333.076782,436.330139 333.858887,436.535553 
z"/>
<path fill="#D3BE9F" opacity="1.000000" stroke="none" 
	d="
M313.940979,462.427246 
	C314.100739,463.174072 313.958191,464.053925 313.425781,464.968658 
	C313.236847,464.189148 313.437775,463.374695 313.940979,462.427246 
z"/>
<path fill="#D3BE9F" opacity="1.000000" stroke="none" 
	d="
M312.482025,413.561707 
	C312.454773,414.058289 312.103973,414.554626 311.398865,415.033997 
	C311.415894,414.531860 311.787170,414.046661 312.482025,413.561707 
z"/>
<path fill="#D3BE9F" opacity="1.000000" stroke="none" 
	d="
M252.975494,563.383972 
	C253.436615,563.223694 254.066208,563.354004 254.861343,563.782593 
	C254.399246,563.945435 253.771606,563.809998 252.975494,563.383972 
z"/>
<path fill="#D3BE9F" opacity="1.000000" stroke="none" 
	d="
M331.989563,423.520264 
	C331.498016,423.721283 330.868988,423.625397 330.111328,423.211029 
	C330.605835,423.002838 331.228943,423.113129 331.989563,423.520264 
z"/>
<path fill="#000000" opacity="1.000000" stroke="none" 
	d="
M359.796967,571.063843 
	C359.764771,571.424683 359.732544,571.785522 359.306305,572.410095 
	C354.924896,572.815552 350.937500,572.957275 346.950134,573.098999 
	C344.619232,572.834106 342.288330,572.569214 339.267212,572.090210 
	C337.044800,571.914612 335.512604,571.953064 333.980438,571.991577 
	C332.621490,571.795105 331.262573,571.598633 329.226379,571.192505 
	C327.014374,571.039490 325.479645,571.096130 323.944885,571.152832 
	C322.915680,570.978577 321.886505,570.804321 320.183990,570.406372 
	C315.981415,569.869080 312.452118,569.555481 308.922852,569.241943 
	C308.503326,569.160095 308.083832,569.078247 307.212738,568.553467 
	C304.807495,567.854309 302.853851,567.598083 300.900177,567.341858 
	C300.486115,567.242371 300.072083,567.142883 299.202271,566.592896 
	C296.467804,565.872314 294.189148,565.602112 291.910461,565.331970 
	C291.189575,565.220764 290.468658,565.109497 289.202820,564.625916 
	C284.410645,563.265564 280.163452,562.277527 275.916260,561.289551 
	C275.495544,561.208618 275.074799,561.127747 274.203247,560.698547 
	C272.914154,560.135193 272.075867,559.920105 271.237579,559.705078 
	C271.237579,559.705078 271.096283,560.007019 270.988556,559.572632 
	C270.255524,559.059082 269.630188,558.980042 269.004883,558.900940 
	C269.004883,558.900940 268.804565,558.640869 268.400879,558.366821 
	C264.399292,556.974548 260.801361,555.856262 257.203461,554.737976 
	C257.203461,554.737976 257.018341,555.000000 256.951904,554.579956 
	C256.259888,554.057129 255.634293,553.954346 255.008713,553.851624 
	C255.008713,553.851624 254.825012,553.600098 254.492065,553.352539 
	C253.755890,553.076538 253.352676,553.048218 252.949448,553.019836 
	C251.621994,552.336243 250.294525,551.652588 248.543076,550.594116 
	C247.730652,550.161499 247.342239,550.103821 246.953827,550.046143 
	C246.662033,549.871948 246.370239,549.697815 245.627563,549.265015 
	C244.784424,548.955994 244.392166,548.905640 243.999908,548.855286 
	C243.475403,547.942261 242.950897,547.029175 242.426392,546.116150 
	C243.600235,546.057922 244.921677,545.616882 245.924042,546.003357 
	C252.719772,548.623596 259.448151,551.418640 266.773010,554.483215 
	C268.469208,555.029846 269.590668,555.250366 270.712097,555.470886 
	C271.260559,555.704407 271.809021,555.937927 272.891296,556.438843 
	C284.636963,559.408264 295.848816,562.110229 307.060669,564.812256 
	C308.086823,565.023376 309.112946,565.234497 310.751434,565.679565 
	C312.251709,565.916626 313.139648,565.919617 314.027588,565.922668 
	C314.745789,566.088745 315.463989,566.254822 316.812256,566.677246 
	C321.623505,567.318848 325.804626,567.703979 329.985779,568.089111 
	C330.716034,568.249573 331.446289,568.410095 332.819153,568.785156 
	C335.308594,569.007446 337.155457,569.015076 339.002289,569.022766 
	C340.367981,569.231262 341.733673,569.439819 343.742615,569.861572 
	C345.282257,569.952576 346.178650,569.830322 347.075043,569.708069 
	C350.711517,569.970093 354.347992,570.232117 358.424805,570.708008 
	C359.175720,570.969177 359.486359,571.016479 359.796967,571.063843 
z"/>
<path fill="#000000" opacity="1.000000" stroke="none" 
	d="
M347.670349,466.937622 
	C348.697083,477.476044 349.214813,488.049469 350.182373,498.581604 
	C350.487122,501.898590 351.998077,505.104767 352.185028,508.508820 
	C343.822968,495.956451 344.190399,481.908386 345.828735,467.283020 
	C346.442139,466.913971 346.888672,466.935303 347.670349,466.937622 
z"/>
<path fill="#D3BE9F" opacity="1.000000" stroke="none" 
	d="
M306.999390,564.454102 
	C295.848816,562.110229 284.636963,559.408264 273.193848,556.427795 
	C275.492249,556.454956 278.061798,556.573059 280.544128,557.101196 
	C288.075592,558.703613 295.585175,560.415039 303.073303,562.209106 
	C304.434143,562.535095 305.653442,563.451904 306.999390,564.454102 
z"/>
<path fill="#000000" opacity="1.000000" stroke="none" 
	d="
M387.531830,569.115601 
	C387.376648,572.588928 384.505981,571.968872 382.266510,572.361938 
	C380.359222,572.696716 378.420685,572.853271 376.226410,573.382019 
	C375.226196,573.597473 374.495575,573.519592 373.214233,573.293579 
	C371.789459,573.080933 370.915344,573.016357 370.041260,572.951843 
	C370.041260,572.951843 370.000427,573.000000 370.182373,572.670898 
	C371.916656,571.519653 373.468994,570.697388 375.021332,569.875122 
	C375.458527,569.920349 375.895721,569.965637 376.981812,570.088379 
	C379.107605,569.898376 380.584503,569.630981 382.061401,569.363525 
	C383.745331,569.259277 385.429260,569.154968 387.531830,569.115601 
z"/>
<path fill="#D3BE9F" opacity="1.000000" stroke="none" 
	d="
M329.923645,567.698608 
	C325.804626,567.703979 321.623505,567.318848 317.181702,566.651611 
	C321.234528,566.682434 325.548035,566.995239 329.923645,567.698608 
z"/>
<path fill="#D3BE9F" opacity="1.000000" stroke="none" 
	d="
M347.029175,573.490295 
	C350.937500,572.957275 354.924896,572.815552 359.365509,572.676270 
	C359.519867,573.357727 359.198730,574.635864 358.925446,574.625732 
	C354.982574,574.479309 351.046173,574.159668 347.029175,573.490295 
z"/>
<path fill="#D3BE9F" opacity="1.000000" stroke="none" 
	d="
M276.005188,561.632080 
	C280.163452,562.277527 284.410645,563.265564 288.838715,564.587891 
	C284.711090,563.939636 280.402588,562.957153 276.005188,561.632080 
z"/>
<path fill="#D3BE9F" opacity="1.000000" stroke="none" 
	d="
M309.014313,569.596375 
	C312.452118,569.555481 315.981415,569.869080 319.794312,570.473206 
	C316.420532,570.492798 312.763153,570.221802 309.014313,569.596375 
z"/>
<path fill="#D3BE9F" opacity="1.000000" stroke="none" 
	d="
M358.961060,582.630615 
	C355.993439,583.065247 352.676208,583.254028 349.010376,583.186462 
	C351.978363,582.748291 355.294922,582.566589 358.961060,582.630615 
z"/>
<path fill="#D3BE9F" opacity="1.000000" stroke="none" 
	d="
M320.231476,580.504272 
	C317.039368,580.401306 313.655029,579.954346 309.951508,579.230835 
	C313.101288,579.356323 316.570282,579.758301 320.231476,580.504272 
z"/>
<path fill="#D3BE9F" opacity="1.000000" stroke="none" 
	d="
M257.244873,555.103271 
	C260.801361,555.856262 264.399292,556.974548 268.237671,558.383972 
	C264.747498,557.606323 261.016907,556.537476 257.244873,555.103271 
z"/>
<path fill="#D3BE9F" opacity="1.000000" stroke="none" 
	d="
M374.996246,569.518066 
	C373.468994,570.697388 371.916656,571.519653 370.207031,572.651123 
	C369.583618,571.806396 369.117493,570.652466 368.651367,569.498535 
	C370.757965,569.385986 372.864563,569.273438 374.996246,569.518066 
z"/>
<path fill="#D3BE9F" opacity="1.000000" stroke="none" 
	d="
M292.001404,565.666626 
	C294.189148,565.602112 296.467804,565.872314 298.893555,566.505249 
	C296.724548,566.579163 294.408478,566.290222 292.001404,565.666626 
z"/>
<path fill="#D3BE9F" opacity="1.000000" stroke="none" 
	d="
M338.955322,568.650085 
	C337.155457,569.015076 335.308594,569.007446 333.189270,568.711060 
	C334.913971,568.374084 336.911163,568.325745 338.955322,568.650085 
z"/>
<path fill="#D3BE9F" opacity="1.000000" stroke="none" 
	d="
M300.982880,567.671021 
	C302.853851,567.598083 304.807495,567.854309 306.903992,568.462402 
	C305.053070,568.542969 303.059326,568.271545 300.982880,567.671021 
z"/>
<path fill="#D3BE9F" opacity="1.000000" stroke="none" 
	d="
M334.017578,572.368713 
	C335.512604,571.953064 337.044800,571.914612 338.833252,572.167358 
	C337.411255,572.554382 335.733002,572.650146 334.017578,572.368713 
z"/>
<path fill="#D3BE9F" opacity="1.000000" stroke="none" 
	d="
M324.003448,571.516907 
	C325.479645,571.096130 327.014374,571.039490 328.817352,571.262695 
	C327.411041,571.655396 325.736542,571.768188 324.003448,571.516907 
z"/>
<path fill="#D3BE9F" opacity="1.000000" stroke="none" 
	d="
M381.900940,569.023804 
	C380.584503,569.630981 379.107605,569.898376 377.290741,569.963196 
	C378.547363,569.401794 380.143921,569.042908 381.900940,569.023804 
z"/>
<path fill="#D3BE9F" opacity="1.000000" stroke="none" 
	d="
M270.746582,555.107178 
	C269.590668,555.250366 268.469208,555.029846 267.147339,554.525513 
	C268.224976,554.408936 269.503021,554.576172 270.746582,555.107178 
z"/>
<path fill="#D3BE9F" opacity="1.000000" stroke="none" 
	d="
M326.245605,581.345581 
	C325.338531,581.592041 324.293579,581.538879 322.934143,581.222046 
	C323.782318,580.987610 324.945007,581.016785 326.245605,581.345581 
z"/>
<path fill="#D3BE9F" opacity="1.000000" stroke="none" 
	d="
M347.016479,569.375061 
	C346.178650,569.830322 345.282257,569.952576 344.155518,569.804138 
	C344.936066,569.369629 345.946991,569.205872 347.016479,569.375061 
z"/>
<path fill="#D3BE9F" opacity="1.000000" stroke="none" 
	d="
M369.999420,573.312805 
	C370.915344,573.016357 371.789459,573.080933 372.863037,573.415649 
	C372.027527,573.681702 370.992554,573.677734 369.999420,573.312805 
z"/>
<path fill="#D3BE9F" opacity="1.000000" stroke="none" 
	d="
M307.270935,578.500854 
	C306.358154,578.706665 305.296570,578.604370 303.923157,578.229492 
	C304.781586,578.035583 305.951874,578.114136 307.270935,578.500854 
z"/>
<path fill="#D3BE9F" opacity="1.000000" stroke="none" 
	d="
M313.989990,565.589722 
	C313.139648,565.919617 312.251709,565.916626 311.145630,565.646057 
	C311.935791,565.338013 312.944122,565.297424 313.989990,565.589722 
z"/>
<path fill="#D3BE9F" opacity="1.000000" stroke="none" 
	d="
M271.244385,560.016052 
	C272.075867,559.920105 272.914154,560.135193 273.882690,560.661987 
	C273.092346,560.758240 272.171753,560.542603 271.244385,560.016052 
z"/>
<path fill="#D3BE9F" opacity="1.000000" stroke="none" 
	d="
M360.090149,570.959473 
	C359.486359,571.016479 359.175720,570.969177 358.876831,570.659058 
	C359.308228,570.045959 359.727875,569.695618 360.147522,569.345337 
	C360.226135,569.848633 360.304749,570.351868 360.090149,570.959473 
z"/>
<path fill="#D3BE9F" opacity="1.000000" stroke="none" 
	d="
M269.153870,559.210938 
	C269.630188,558.980042 270.255524,559.059082 271.050293,559.418701 
	C270.580811,559.639771 269.941864,559.580383 269.153870,559.210938 
z"/>
<path fill="#D3BE9F" opacity="1.000000" stroke="none" 
	d="
M255.152100,554.166992 
	C255.634293,553.954346 256.259888,554.057129 257.041748,554.448486 
	C256.563843,554.652222 255.929688,554.567261 255.152100,554.166992 
z"/>
<path fill="#D3BE9F" opacity="1.000000" stroke="none" 
	d="
M253.120102,553.297913 
	C253.352676,553.048218 253.755890,553.076538 254.336746,553.363770 
	C254.106506,553.607117 253.698624,553.591553 253.120102,553.297913 
z"/>
<path fill="#D3BE9F" opacity="1.000000" stroke="none" 
	d="
M247.087128,550.317383 
	C247.342239,550.103821 247.730652,550.161499 248.231537,550.514771 
	C247.969482,550.736511 247.594955,550.662598 247.087128,550.317383 
z"/>
<path fill="#D3BE9F" opacity="1.000000" stroke="none" 
	d="
M244.164429,549.146606 
	C244.392166,548.905640 244.784424,548.955994 245.372406,549.237793 
	C245.155075,549.458862 244.742020,549.448425 244.164429,549.146606 
z"/>
<path fill="#000000" opacity="1.000000" stroke="none" 
	d="
M636.106445,410.298645 
	C633.566772,420.379944 631.384888,430.203430 628.949829,439.963715 
	C627.888611,444.217438 624.940735,446.418152 619.921448,447.034912 
	C620.952820,441.736725 622.719238,435.663330 612.692932,436.613495 
	C621.370667,426.109558 624.070496,412.948853 636.361450,405.596466 
	C636.361450,407.501160 636.361450,408.758148 636.106445,410.298645 
z"/>
<path fill="#000000" opacity="1.000000" stroke="none" 
	d="
M549.267395,422.595642 
	C551.078796,414.021729 557.232117,408.636810 563.227173,403.236786 
	C565.561829,401.133881 567.429016,402.920776 566.706909,405.303802 
	C565.464111,409.405060 564.125793,414.057709 561.269287,416.928253 
	C558.344910,419.866974 553.549316,420.943481 549.267395,422.595642 
z"/>
<path fill="#000000" opacity="1.000000" stroke="none" 
	d="
M605.855469,489.793274 
	C606.025146,489.660583 606.483826,489.769623 606.850952,490.174683 
	C606.554443,490.325470 606.349487,490.180267 605.855469,489.793274 
z"/>
<path fill="#000000" opacity="1.000000" stroke="none" 
	d="
M464.821045,535.066895 
	C464.043945,535.683350 463.385559,535.858215 462.727142,536.033081 
	C463.078369,535.081665 463.429596,534.130188 463.780823,533.178772 
	C464.167114,533.661011 464.553406,534.143188 464.821045,535.066895 
z"/>
<path fill="#000000" opacity="1.000000" stroke="none" 
	d="
M515.031494,508.109924 
	C515.496399,507.173828 515.894592,506.626892 516.157593,506.021271 
	C517.372986,503.222412 518.903625,499.611389 522.295715,501.103485 
	C524.457642,502.054504 526.782898,505.890106 526.625061,508.272675 
	C526.060425,516.796082 524.519775,525.259338 523.241333,533.729126 
	C522.583984,538.084351 522.067932,542.512451 520.842285,546.719482 
	C518.310181,555.410706 516.301636,564.429871 508.437805,572.465942 
	C507.049988,569.449036 505.074432,567.165649 505.133728,564.936401 
	C505.395813,555.086060 505.435974,545.111145 507.112061,535.451233 
	C508.702728,526.283569 512.227905,517.451599 515.031494,508.109924 
z"/>
<path fill="#000000" opacity="1.000000" stroke="none" 
	d="
M376.093781,381.644135 
	C377.132446,381.855347 378.740662,382.229919 378.903961,382.937836 
	C380.711060,390.771179 373.460693,406.736725 367.331482,410.156586 
	C369.837952,402.450073 372.544983,394.126953 375.128479,385.401459 
	C375.334045,383.986847 375.663177,382.974548 376.093781,381.644135 
z"/>
<path fill="#000000" opacity="1.000000" stroke="none" 
	d="
M361.752441,412.406067 
	C362.429749,413.034424 363.104492,414.195557 363.059662,414.224060 
	C361.053680,415.498535 358.984436,416.673431 356.922699,417.860107 
	C356.530396,417.208221 356.138062,416.556335 355.745758,415.904449 
	C357.635223,414.739807 359.524689,413.575165 361.752441,412.406067 
z"/>
</svg>